# xmcd
#
# Track frame offsets:
#   150
#   19753
#   34932
#   52117
#   67885
#   87293
#   103437
#   122860
#   135060
#   150399
#   167385
#   182189
#   198658
#
# Disc length: 2927 seconds
#
# Revision: 0
# Processed by: cddbd v1.5.2PL0 Copyright (c) Steve Scherf et al.
# Submitted via: uFREEDB ActiveX Control 1.5
#
DISCID=ab0b6d0d
DTITLE=NILTON FERREIRA - MARCAS DO TEMPO
DYEAR=1900
DGENRE=Country
TTITLE0=ABARALHANDO A BARBELA
TTITLE1=NO IMPERIO DAS ESTANCIAS
TTITLE2=TIRANDO O PESO DAS COSTAS
TTITLE3=VANEIRA XUCRA
TTITLE4=SURUNGO DE RANCHO
TTITLE5=MARCAS DO TEMPO
TTITLE6=PRA NAO FRAQUEJAR
TTITLE7=BAILE DO BIGODE
TTITLE8=DEMONSTRANDO O ORGULHO
TTITLE9=PRA QUEM ESCORA NO BRACO
TTITLE10=RACA GUAPA
TTITLE11=DO MEU JEITO
TTITLE12=GATEADO PIRILAMPO
EXTD=
EXTT0=
EXTT1=
EXTT2=
EXTT3=
EXTT4=
EXTT5=
EXTT6=
EXTT7=
EXTT8=
EXTT9=
EXTT10=
EXTT11=
EXTT12=
PLAYORDER=
